<?xml version="1.0" encoding="utf-8"?>
<!-- Generator: Adobe Illustrator 25.4.1, SVG Export Plug-In . SVG Version: 6.00 Build 0)  -->
<svg version="1.1" id="Layer_1" xmlns="http://www.w3.org/2000/svg" xmlns:xlink="http://www.w3.org/1999/xlink" x="0px" y="0px"
	 viewBox="0 0 1440 1040" style="enable-background:new 0 0 1440 1040;" xml:space="preserve">
<style type="text/css">
	.st0{fill:#27AAE1;}
	.st1{fill:#58595B;}
	.st2{fill:#1C75BC;}
</style>
<g>
	<g id="XMLID_00000026861915621461472450000013591121606660493748_">
		<path id="XMLID_00000010295964394236138620000006543700612039490742_" class="st0" d="M787.72,421.54c0,0-5.25,75.83-55.8,101.1
			c0,0-38.15,28.61-92.04-31.95c0,0-40.54-56.28,1.43-113.03c0,0,48.64-67.24,128.77-22.89V350c0,0-79.17-53.89-143.55,30.05
			c0,0-31,44.83-8.58,95.86c0,0,22.41,64.38,99.2,63.91c0,0,82.98,7.15,131.15-80.12C848.29,459.69,801.07,515.97,787.72,421.54z"/>
		<path id="XMLID_00000038404927436264433570000003058101812883660464_" class="st0" d="M775.32,329.97
			c0,0,47.69,110.64-59.14,195.06c0,0,64.38-73.92-55.32-149.27C660.86,375.75,774.37,431.55,775.32,329.97z"/>
		<path id="XMLID_00000159452871456554525280000009700658101970315181_" class="st0" d="M683.28,409.61c0,0,58.18,37.2,27.18,113.5
			c0,0,11.92-62.48-64.86-44.83C645.6,478.29,716.18,451.11,683.28,409.61z"/>
		<path id="XMLID_00000085960644329453817630000004226137254338331528_" class="st1" d="M571.2,564.61c0,0,82.51-13.35,144.5,0
			C715.71,564.61,645.13,536.47,571.2,564.61z"/>
		<path id="XMLID_00000124156303192491570570000002492184620295191424_" class="st1" d="M723.82,564.13c0,0,82.98-26.23,144.98,0
			C868.8,564.13,800.6,551.26,723.82,564.13z"/>
		<path id="XMLID_00000129183867094783364230000009672837237319483303_" class="st1" d="M626.53,511.2l-28.14,31.95
			c0,0,69.15-26.23,119.7,14.31c0,0-68.67-28.14-144.5,0.48l51.03-48.17L626.53,511.2z"/>
		<path id="XMLID_00000121274908463017530750000014040464420215002270_" class="st1" d="M722.86,557.93c0,0,37.2-39.58,119.23-14.31
			l-30.05-32.43l5.25-0.95l47.69,46.26C864.98,556.5,802.98,530.75,722.86,557.93z"/>
		<circle id="XMLID_00000074418959497881448150000017880053679976339884_" class="st0" cx="667.54" cy="440.61" r="13.35"/>
		<circle id="XMLID_00000156554559516469861320000013725554653839114931_" class="st0" cx="727.15" cy="362.88" r="19.08"/>
		<circle id="XMLID_00000173156301158881629910000014056328373203675806_" class="st0" cx="819.2" cy="446.34" r="14.31"/>
	</g>
	<g>
		<g>
			<path class="st2" d="M745.34,608.4h17.47h52.41v-17.07h-69.88C745.34,597.01,745.34,602.71,745.34,608.4z"/>
			<g>
				<path class="st2" d="M589.44,589.46c-32.27,0-48.01,24.67-48.01,49.21c0,24.54,15.2,48.14,48.01,48.14
					c32.81,0,47.61-24.14,47.88-48.28C637.58,614.13,621.58,589.46,589.44,589.46z M589.44,670.68c-22.01,0-30.27-16.4-30.67-31.74
					c-0.4-15.74,8.67-33.47,30.67-33.47c22.01,0,30.81,17.6,30.54,33.34C619.71,654.14,611.44,670.68,589.44,670.68z"/>
				<path class="st2" d="M731.07,622.27c0-16.14-11.6-30.81-33.61-30.94c-14.8,0-29.61-0.13-44.41-0.13v16.54h17.6h26.81
					c11.07,0,16,7.47,16,14.94c0,7.47-4.8,14.94-16,14.94h-26.81h-17.6v47.08h17.6v-31.21h16.94l27.21,31.21h20.94v-1.2
					l-28.27-31.87C725.2,648.01,731.07,635.07,731.07,622.27z"/>
				<path class="st2" d="M762.81,646.27h50.54v-16.4h-50.54h-17.47c0,18.28,0,36.57,0,54.81h69.88v-17.34h-52.41V646.27z"/>
				<polygon class="st2" points="849.09,633.87 831.49,633.87 831.49,684.68 849.09,684.68 849.09,650.14 895.9,650.14 
					895.9,633.87 				"/>
			</g>
			<polygon class="st2" points="898.57,608.4 898.57,591.46 831.49,591.46 831.49,608.4 849.09,608.4 			"/>
		</g>
		<g>
			<path class="st2" d="M745.34,608.4h17.47h52.41v-17.07h-69.88C745.34,597.01,745.34,602.71,745.34,608.4z"/>
			<g>
				<path class="st2" d="M589.44,589.46c-32.27,0-48.01,24.67-48.01,49.21c0,24.54,15.2,48.14,48.01,48.14
					c32.81,0,47.61-24.14,47.88-48.28C637.58,614.13,621.58,589.46,589.44,589.46z M589.44,670.68c-22.01,0-30.27-16.4-30.67-31.74
					c-0.4-15.74,8.67-33.47,30.67-33.47c22.01,0,30.81,17.6,30.54,33.34C619.71,654.14,611.44,670.68,589.44,670.68z"/>
				<path class="st2" d="M731.07,622.27c0-16.14-11.6-30.81-33.61-30.94c-14.8,0-29.61-0.13-44.41-0.13v16.54h17.6h26.81
					c11.07,0,16,7.47,16,14.94c0,7.47-4.8,14.94-16,14.94h-26.81h-17.6v47.08h17.6v-31.21h16.94l27.21,31.21h20.94v-1.2
					l-28.27-31.87C725.2,648.01,731.07,635.07,731.07,622.27z"/>
				<path class="st2" d="M762.81,646.27h50.54v-16.4h-50.54h-17.47c0,18.28,0,36.57,0,54.81h69.88v-17.34h-52.41V646.27z"/>
				<polygon class="st2" points="849.09,633.87 831.49,633.87 831.49,684.68 849.09,684.68 849.09,650.14 895.9,650.14 
					895.9,633.87 				"/>
			</g>
			<polygon class="st2" points="898.57,608.4 898.57,591.46 831.49,591.46 831.49,608.4 849.09,608.4 			"/>
		</g>
		<g>
			<path class="st2" d="M745.34,608.4h17.47h52.41v-17.07h-69.88C745.34,597.01,745.34,602.71,745.34,608.4z"/>
			<g>
				<path class="st2" d="M589.44,589.46c-32.27,0-48.01,24.67-48.01,49.21c0,24.54,15.2,48.14,48.01,48.14
					c32.81,0,47.61-24.14,47.88-48.28C637.58,614.13,621.58,589.46,589.44,589.46z M589.44,670.68c-22.01,0-30.27-16.4-30.67-31.74
					c-0.4-15.74,8.67-33.47,30.67-33.47c22.01,0,30.81,17.6,30.54,33.34C619.71,654.14,611.44,670.68,589.44,670.68z"/>
				<path class="st2" d="M731.07,622.27c0-16.14-11.6-30.81-33.61-30.94c-14.8,0-29.61-0.13-44.41-0.13v16.54h17.6h26.81
					c11.07,0,16,7.47,16,14.94c0,7.47-4.8,14.94-16,14.94h-26.81h-17.6v47.08h17.6v-31.21h16.94l27.21,31.21h20.94v-1.2
					l-28.27-31.87C725.2,648.01,731.07,635.07,731.07,622.27z"/>
				<path class="st2" d="M762.81,646.27h50.54v-16.4h-50.54h-17.47c0,18.28,0,36.57,0,54.81h69.88v-17.34h-52.41V646.27z"/>
				<polygon class="st2" points="849.09,633.87 831.49,633.87 831.49,684.68 849.09,684.68 849.09,650.14 895.9,650.14 
					895.9,633.87 				"/>
			</g>
			<polygon class="st2" points="898.57,608.4 898.57,591.46 831.49,591.46 831.49,608.4 849.09,608.4 			"/>
		</g>
		<g>
			<path class="st1" d="M552.39,703.21c-0.03,3.41-1.72,6.82-5.47,6.82c-3.75,0-5.49-3.33-5.49-6.8c0-3.47,1.8-6.95,5.49-6.95
				C550.59,696.28,552.42,699.76,552.39,703.21z M543.41,703.27c0.05,2.17,0.99,4.48,3.5,4.48c2.51,0,3.46-2.34,3.49-4.5
				c0.03-2.22-0.98-4.71-3.49-4.71C544.4,698.54,543.36,701.05,543.41,703.27z"/>
			<path class="st1" d="M561.43,709.75v-5.33h-5.24v5.33h-2.01v-13.18h2.01v5.56h5.24v-5.56h2v13.18H561.43z"/>
			<path class="st1" d="M565.63,709.73v-13.18h2v13.18H565.63z"/>
			<path class="st1" d="M580.63,703.21c-0.03,3.41-1.72,6.82-5.47,6.82c-3.75,0-5.49-3.33-5.49-6.8c0-3.47,1.8-6.95,5.49-6.95
				C578.83,696.28,580.66,699.76,580.63,703.21z M571.65,703.27c0.05,2.17,0.99,4.48,3.5,4.48c2.51,0,3.46-2.34,3.49-4.5
				c0.03-2.22-0.98-4.71-3.49-4.71C572.64,698.54,571.61,701.05,571.65,703.27z"/>
			<path class="st1" d="M595.25,709.73h-2.39l-3.11-4.41h-1.94v4.41h-2.01v-13.2c1.69,0,3.38,0.02,5.07,0.02
				c2.51,0.02,3.84,2.09,3.84,4.37c0,1.81-0.67,3.63-2.7,4.14l3.23,4.5V709.73z M587.81,698.86v4.22h3.06
				c1.28,0,1.83-1.05,1.83-2.11c0-1.05-0.56-2.11-1.83-2.11H587.81z"/>
			<path class="st1" d="M604.33,709.73h-7.98c0-4.39,0-8.8,0-13.18h7.98v2.41h-5.99v3.03h5.78v2.32h-5.78v2.98h5.99V709.73z"/>
			<path class="st1" d="M615.59,708.07c-1.1,1.34-2.51,1.96-4.05,1.96c-3.96,0-5.64-3.37-5.65-6.8c-0.02-3.45,1.8-6.95,5.65-6.95
				c1.45,0,2.82,0.68,3.92,2.02l-1.34,1.6c-0.7-0.85-1.65-1.24-2.58-1.24c-2.58,0-3.69,2.37-3.67,4.58
				c0.02,2.18,1.04,4.46,3.67,4.46c0.93,0,1.98-0.47,2.68-1.34L615.59,708.07z"/>
			<path class="st1" d="M626.48,709.73h-2.39l-3.11-4.41h-1.94v4.41h-2.01v-13.2c1.69,0,3.38,0.02,5.07,0.02
				c2.51,0.02,3.84,2.09,3.84,4.37c0,1.81-0.67,3.63-2.7,4.14l3.23,4.5V709.73z M619.04,698.86v4.22h3.06
				c1.28,0,1.83-1.05,1.83-2.11c0-1.05-0.56-2.11-1.83-2.11H619.04z"/>
			<path class="st1" d="M635.56,709.73h-7.98c0-4.39,0-8.8,0-13.18h7.98v2.41h-5.99v3.03h5.78v2.32h-5.78v2.98h5.99V709.73z"/>
			<path class="st1" d="M644.99,707.24h-5.58l-0.91,2.49h-2.18l4.78-13.18h2.19l4.79,13.18h-2.19L644.99,707.24z M642.2,699.31
				l-1.98,5.61h3.96L642.2,699.31z"/>
			<path class="st1" d="M650.3,698.8h-3.38v-2.26c3.08,0,5.68,0,8.78,0v2.26h-3.38v10.92h-2.01V698.8z"/>
			<path class="st1" d="M657.23,709.73v-13.18h2v13.18H657.23z"/>
			<path class="st1" d="M672.22,703.21c-0.03,3.41-1.72,6.82-5.47,6.82c-3.75,0-5.49-3.33-5.49-6.8c0-3.47,1.8-6.95,5.49-6.95
				C670.42,696.28,672.25,699.76,672.22,703.21z M663.25,703.27c0.05,2.17,0.99,4.48,3.5,4.48c2.51,0,3.46-2.34,3.49-4.5
				c0.03-2.22-0.98-4.71-3.49-4.71C664.24,698.54,663.2,701.05,663.25,703.27z"/>
			<path class="st1" d="M681.01,696.53h2.01v13.2h-1.25v0.02l-5.61-8.91v8.89h-2.01v-13.18h1.63l5.23,8.17V696.53z"/>
			<path class="st1" d="M696.99,705.89c0,0.77,0.27,1.43,0.96,1.43v2.47c-0.79,0-1.68-0.23-2.01-1.73c-0.7,1.41-1.92,1.85-3.05,1.85
				c-2.33,0-4.22-0.92-4.24-4.18c0-1.11,0.66-2.34,1.65-2.75c-0.96-0.38-1.43-1.64-1.43-2.67c0.02-2.81,2.16-3.96,4.07-3.96
				c1.86,0,3.89,0.88,3.9,3.73h-1.9c0-1.21-0.96-1.62-2.04-1.62c-1.57,0-2.09,1.07-2.07,1.85c0,1.34,1.34,1.71,2.06,1.71
				c1.66,0,3.34,0,5,0v1.96h-0.88V705.89z M690.64,705.74c0,1.39,1.11,1.94,2.22,1.94c0.72,0,2.23-0.47,2.23-1.81v-1.9
				c-0.78,0-1.54,0-2.32,0C691.29,703.96,690.64,704.94,690.64,705.74z"/>
			<path class="st1" d="M711.23,709.73h-7.98c0-4.39,0-8.8,0-13.18h7.98v2.41h-5.99v3.03h5.78v2.32h-5.78v2.98h5.99V709.73z"/>
			<path class="st1" d="M722.48,703.02c0.05,3.33-1.6,6.7-5.33,6.7c-1.31,0-2.88,0-4.19,0v-13.18c1.31,0,2.88,0,4.19,0
				C720.8,696.54,722.43,699.76,722.48,703.02z M714.95,707.34h2.19c2.42,0,3.38-2.19,3.34-4.33c-0.05-2.05-1.02-4.11-3.34-4.11
				h-2.19V707.34z"/>
			<path class="st1" d="M733.46,696.56v7.55c0,3.9-1.94,5.9-4.62,5.9c-2.56,0-4.74-1.92-4.74-5.9v-7.55h2v7.55
				c0,2.37,1.1,3.64,2.76,3.64s2.61-1.37,2.61-3.64v-7.55H733.46z"/>
			<path class="st1" d="M745.13,708.07c-1.1,1.34-2.51,1.96-4.05,1.96c-3.96,0-5.64-3.37-5.65-6.8c-0.02-3.45,1.8-6.95,5.65-6.95
				c1.45,0,2.82,0.68,3.92,2.02l-1.34,1.6c-0.7-0.85-1.65-1.24-2.58-1.24c-2.58,0-3.69,2.37-3.67,4.58
				c0.02,2.18,1.04,4.46,3.67,4.46c0.93,0,1.98-0.47,2.68-1.34L745.13,708.07z"/>
			<path class="st1" d="M753.66,707.24h-5.58l-0.91,2.49h-2.18l4.78-13.18h2.19l4.79,13.18h-2.19L753.66,707.24z M750.87,699.31
				l-1.98,5.61h3.96L750.87,699.31z"/>
			<path class="st1" d="M758.97,698.8h-3.38v-2.26c3.08,0,5.68,0,8.78,0v2.26h-3.38v10.92h-2.01V698.8z"/>
			<path class="st1" d="M765.9,709.73v-13.18h2v13.18H765.9z"/>
			<path class="st1" d="M780.9,703.21c-0.03,3.41-1.72,6.82-5.47,6.82c-3.75,0-5.49-3.33-5.49-6.8c0-3.47,1.8-6.95,5.49-6.95
				C779.1,696.28,780.93,699.76,780.9,703.21z M771.92,703.27c0.05,2.17,0.99,4.48,3.5,4.48c2.51,0,3.46-2.34,3.49-4.5
				c0.03-2.22-0.98-4.71-3.49-4.71C772.91,698.54,771.87,701.05,771.92,703.27z"/>
			<path class="st1" d="M789.68,696.53h2.01v13.2h-1.25v0.02l-5.61-8.91v8.89h-2.01v-13.18h1.63l5.23,8.17V696.53z"/>
			<path class="st1" d="M797.22,709.73v-13.17h7.66v2.39h-5.65v3.6h5.35v2.3h-5.35v4.88H797.22z"/>
			<path class="st1" d="M817.38,703.21c-0.03,3.41-1.72,6.82-5.47,6.82c-3.75,0-5.49-3.33-5.49-6.8c0-3.47,1.8-6.95,5.49-6.95
				C815.58,696.28,817.41,699.76,817.38,703.21z M808.4,703.27c0.05,2.17,0.99,4.48,3.51,4.48c2.51,0,3.46-2.34,3.49-4.5
				c0.03-2.22-0.98-4.71-3.49-4.71C809.39,698.54,808.36,701.05,808.4,703.27z"/>
			<path class="st1" d="M828.51,696.56v7.55c0,3.9-1.93,5.9-4.62,5.9c-2.56,0-4.74-1.92-4.74-5.9v-7.55h2v7.55
				c0,2.37,1.1,3.64,2.76,3.64c1.66,0,2.61-1.37,2.61-3.64v-7.55H828.51z"/>
			<path class="st1" d="M837.79,696.53h2.01v13.2h-1.25v0.02l-5.61-8.91v8.89h-2.01v-13.18h1.63l5.23,8.17V696.53z"/>
			<path class="st1" d="M851.33,703.02c0.05,3.33-1.6,6.7-5.33,6.7c-1.31,0-2.88,0-4.19,0v-13.18c1.31,0,2.88,0,4.19,0
				C849.66,696.54,851.29,699.76,851.33,703.02z M843.81,707.34H846c2.42,0,3.38-2.19,3.34-4.33c-0.05-2.05-1.02-4.11-3.34-4.11
				h-2.19V707.34z"/>
			<path class="st1" d="M860.53,707.24h-5.58l-0.91,2.49h-2.18l4.79-13.18h2.19l4.78,13.18h-2.19L860.53,707.24z M857.74,699.31
				l-1.98,5.61h3.96L857.74,699.31z"/>
			<path class="st1" d="M865.85,698.8h-3.38v-2.26c3.08,0,5.68,0,8.78,0v2.26h-3.38v10.92h-2.01V698.8z"/>
			<path class="st1" d="M872.78,709.73v-13.18h2v13.18H872.78z"/>
			<path class="st1" d="M887.77,703.21c-0.03,3.41-1.72,6.82-5.47,6.82c-3.75,0-5.49-3.33-5.49-6.8c0-3.47,1.8-6.95,5.49-6.95
				C885.97,696.28,887.8,699.76,887.77,703.21z M878.8,703.27c0.05,2.17,0.99,4.48,3.51,4.48c2.51,0,3.46-2.34,3.49-4.5
				c0.03-2.22-0.98-4.71-3.49-4.71C879.79,698.54,878.75,701.05,878.8,703.27z"/>
			<path class="st1" d="M896.56,696.53h2.01v13.2h-1.25v0.02l-5.61-8.91v8.89h-2.01v-13.18h1.63l5.23,8.17V696.53z"/>
		</g>
	</g>
</g>
</svg>
