<?xml version="1.0" standalone="no"?>
<!DOCTYPE svg PUBLIC "-//W3C//DTD SVG 20010904//EN"
 "http://www.w3.org/TR/2001/REC-SVG-20010904/DTD/svg10.dtd">
<svg version="1.0" xmlns="http://www.w3.org/2000/svg"
 width="64.000000pt" height="64.000000pt" viewBox="0 0 64.000000 64.000000"
 preserveAspectRatio="xMidYMid meet">

<g transform="translate(0.000000,64.000000) scale(0.100000,-0.100000)"
fill="#000000" stroke="none">
<path d="M236 608 c-21 -30 -20 -44 4 -68 37 -37 100 -14 100 38 0 50 -75 72
-104 30z m79 -19 c14 -44 -44 -67 -66 -27 -10 18 -8 24 10 39 25 21 48 16 56
-12z"/>
<path d="M185 505 c-5 -2 -22 -6 -36 -9 -26 -6 -79 -72 -79 -100 0 -7 7 -20
16 -27 15 -12 21 -9 50 25 l34 39 -5 -49 c-16 -137 -14 -133 -56 -166 -21 -17
-39 -39 -39 -48 0 -20 19 -40 38 -40 24 0 112 73 112 92 0 10 7 18 15 18 19 0
35 -31 35 -67 0 -35 16 -53 46 -53 29 0 35 20 27 87 -6 53 -17 74 -55 98 -20
13 -13 86 7 79 17 -7 94 33 102 52 3 9 -1 22 -9 30 -11 12 -20 12 -47 3 -29
-10 -35 -9 -60 15 -25 24 -63 32 -96 21z m90 -36 c32 -28 39 -30 61 -20 33 14
44 14 44 -2 0 -7 -16 -21 -36 -30 -28 -14 -39 -15 -50 -6 -21 17 -30 2 -38
-57 -6 -51 -6 -52 27 -72 30 -17 35 -25 41 -76 3 -32 4 -61 1 -66 -11 -18 -35
3 -35 30 0 53 -18 80 -66 102 l-46 20 6 79 c7 75 6 79 -13 79 -12 0 -27 -12
-38 -30 -9 -16 -23 -30 -30 -30 -19 0 -16 11 12 52 19 29 34 38 72 46 26 5 49
10 50 11 1 0 18 -13 38 -30z m-74 -241 c-4 -12 -26 -35 -49 -51 -34 -25 -45
-28 -55 -18 -9 9 -3 19 31 47 23 20 42 42 42 50 0 12 4 12 20 4 14 -8 17 -16
11 -32z"/>
<path d="M490 441 c-61 -16 -65 -19 -65 -47 0 -26 4 -29 33 -32 l33 -3 -3
-137 -3 -137 -228 -3 -228 -2 3 -38 3 -37 285 0 285 0 0 40 c0 34 -3 40 -22
43 -23 3 -23 6 -23 138 0 112 2 134 15 134 11 0 15 12 15 50 0 58 1 57 -100
31z m80 -31 l0 -30 -65 0 c-85 0 -89 22 -7 43 31 8 60 15 65 16 4 1 7 -12 7
-29z m-32 -187 c-2 -98 -6 -138 -15 -141 -10 -3 -13 29 -13 137 0 120 2 141
15 141 13 0 15 -20 13 -137z m47 -178 c0 -19 -8 -20 -259 -23 -155 -1 -264 2
-269 7 -5 5 -7 17 -4 25 6 14 37 16 269 14 255 -3 263 -4 263 -23z"/>
</g>
</svg>
